<svg xmlns="http://www.w3.org/2000/svg" width="62.007" height="62.007" viewBox="0 0 62.007 62.007">
  <path id="github-square-brands" d="M55.363,32H6.644A6.645,6.645,0,0,0,0,38.644v48.72a6.645,6.645,0,0,0,6.644,6.644h48.72a6.645,6.645,0,0,0,6.644-6.644V38.644A6.645,6.645,0,0,0,55.363,32ZM38.381,85.108c-1.163.208-1.592-.512-1.592-1.107,0-.747.028-4.568.028-7.654A5.393,5.393,0,0,0,35.253,72.1c5.121-.567,10.519-1.273,10.519-10.118,0-2.519-.9-3.779-2.367-5.4a8.657,8.657,0,0,0-.235-6.228c-1.924-.6-6.325,2.478-6.325,2.478a21.774,21.774,0,0,0-11.516,0s-4.4-3.073-6.325-2.478a8.59,8.59,0,0,0-.235,6.228,6.951,6.951,0,0,0-2.159,5.4c0,8.8,5.163,9.55,10.284,10.118a5.017,5.017,0,0,0-1.467,3.087c-1.315.6-4.678,1.619-6.685-1.924a4.822,4.822,0,0,0-3.529-2.367c-2.242-.028-.152,1.412-.152,1.412,1.495.692,2.547,3.35,2.547,3.35,1.343,4.111,7.765,2.727,7.765,2.727,0,1.924.028,5.052.028,5.619,0,.6-.415,1.315-1.592,1.107A22.963,22.963,0,0,1,8.277,63.2,21.965,21.965,0,0,1,30.7,40.844c12.706,0,23,9.647,23,22.353A22.752,22.752,0,0,1,38.381,85.108ZM24.8,76.651c-.263.055-.512-.055-.54-.235-.028-.208.152-.388.415-.443.263-.028.512.083.54.263S25.08,76.6,24.8,76.651Zm-1.315-.125c0,.18-.208.332-.484.332-.3.028-.512-.125-.512-.332,0-.18.208-.332.484-.332C23.239,76.166,23.488,76.319,23.488,76.526Zm-1.9-.152c-.055.18-.332.263-.567.18-.263-.055-.443-.263-.388-.443s.332-.263.567-.208c.277.083.457.291.388.471Zm-1.7-.747c-.125.152-.388.125-.6-.083-.208-.18-.263-.443-.125-.567.125-.152.388-.125.6.083C19.945,75.239,20.014,75.516,19.889,75.627Zm-1.26-1.26c-.125.083-.36,0-.512-.208s-.152-.443,0-.54c.152-.125.388-.028.512.18A.405.405,0,0,1,18.63,74.367Zm-.9-1.343c-.125.125-.332.055-.484-.083-.152-.18-.18-.388-.055-.484.125-.125.332-.055.484.083C17.827,72.72,17.855,72.928,17.73,73.024ZM16.8,72a.261.261,0,0,1-.388.055c-.18-.083-.263-.235-.208-.36a.326.326,0,0,1,.388-.055C16.775,71.737,16.858,71.89,16.8,72Z" transform="translate(0 -32)" fill="#111"/>
</svg>
