<svg xmlns="http://www.w3.org/2000/svg" width="62.007" height="62.007" viewBox="0 0 62.007 62.007">
  <path id="linkedin-brands" d="M57.578,32H4.415A4.448,4.448,0,0,0,0,36.471V89.537a4.448,4.448,0,0,0,4.415,4.471H57.578a4.46,4.46,0,0,0,4.429-4.471V36.471A4.46,4.46,0,0,0,57.578,32ZM18.74,85.149H9.55V55.557h9.2V85.149Zm-4.6-33.633a5.329,5.329,0,1,1,5.329-5.329A5.331,5.331,0,0,1,14.145,51.516ZM53.19,85.149H44V70.755c0-3.433-.069-7.848-4.775-7.848-4.789,0-5.522,3.737-5.522,7.6V85.149h-9.19V55.557h8.817V59.6h.125a9.68,9.68,0,0,1,8.706-4.775c9.3,0,11.031,6.132,11.031,14.1Z" transform="translate(0 -32)" fill="#111"/>
</svg>
